<?xml version="1.0" encoding="UTF-8" ?>
<svg version="1.1" width="103" height="137" xmlns="http://www.w3.org/2000/svg" shape-rendering="crispEdges">
<rect x="96" y="8" width="1" height="1" fill="#CEAB6A" />
<rect x="95" y="9" width="1" height="1" fill="#CEAB6A" />
<rect x="97" y="9" width="1" height="1" fill="#CEAB6A" />
<rect x="7" y="10" width="1" height="1" fill="#CEAB6A" />
<rect x="96" y="10" width="1" height="1" fill="#CEAB6A" />
<rect x="6" y="11" width="1" height="1" fill="#CEAB6A" />
<rect x="8" y="11" width="1" height="1" fill="#CEAB6A" />
<rect x="7" y="12" width="1" height="1" fill="#CEAB6A" />
<rect x="85" y="13" width="1" height="1" fill="#CEAB6A" />
<rect x="87" y="13" width="1" height="1" fill="#CEAB6A" />
<rect x="86" y="14" width="1" height="1" fill="#CEAB6A" />
<rect x="15" y="15" width="1" height="1" fill="#CEAB6A" />
<rect x="17" y="15" width="1" height="1" fill="#CEAB6A" />
<rect x="85" y="15" width="1" height="1" fill="#CEAB6A" />
<rect x="87" y="15" width="1" height="1" fill="#CEAB6A" />
<rect x="16" y="16" width="1" height="1" fill="#CEAB6A" />
<rect x="15" y="17" width="1" height="1" fill="#CEAB6A" />
<rect x="17" y="17" width="1" height="1" fill="#CEAB6A" />
<rect x="96" y="20" width="1" height="1" fill="#CEAB6A" />
<rect x="95" y="21" width="1" height="1" fill="#CEAB6A" />
<rect x="97" y="21" width="1" height="1" fill="#CEAB6A" />
<rect x="7" y="22" width="1" height="1" fill="#CEAB6A" />
<rect x="96" y="22" width="1" height="1" fill="#CEAB6A" />
<rect x="6" y="23" width="1" height="1" fill="#CEAB6A" />
<rect x="8" y="23" width="1" height="1" fill="#CEAB6A" />
<rect x="7" y="24" width="1" height="1" fill="#CEAB6A" />
<rect x="6" y="113" width="1" height="1" fill="#CEAB6A" />
<rect x="96" y="113" width="1" height="1" fill="#CEAB6A" />
<rect x="5" y="114" width="1" height="1" fill="#CEAB6A" />
<rect x="7" y="114" width="1" height="1" fill="#CEAB6A" />
<rect x="95" y="114" width="1" height="1" fill="#CEAB6A" />
<rect x="97" y="114" width="1" height="1" fill="#CEAB6A" />
<rect x="6" y="115" width="1" height="1" fill="#CEAB6A" />
<rect x="96" y="115" width="1" height="1" fill="#CEAB6A" />
<rect x="14" y="118" width="1" height="1" fill="#CEAB6A" />
<rect x="16" y="118" width="1" height="1" fill="#CEAB6A" />
<rect x="85" y="118" width="1" height="1" fill="#CEAB6A" />
<rect x="87" y="118" width="1" height="1" fill="#CEAB6A" />
<rect x="15" y="119" width="1" height="1" fill="#CEAB6A" />
<rect x="86" y="119" width="1" height="1" fill="#CEAB6A" />
<rect x="14" y="120" width="1" height="1" fill="#CEAB6A" />
<rect x="16" y="120" width="1" height="1" fill="#CEAB6A" />
<rect x="85" y="120" width="1" height="1" fill="#CEAB6A" />
<rect x="87" y="120" width="1" height="1" fill="#CEAB6A" />
<rect x="6" y="125" width="1" height="1" fill="#CEAB6A" />
<rect x="96" y="125" width="1" height="1" fill="#CEAB6A" />
<rect x="5" y="126" width="1" height="1" fill="#CEAB6A" />
<rect x="7" y="126" width="1" height="1" fill="#CEAB6A" />
<rect x="95" y="126" width="1" height="1" fill="#CEAB6A" />
<rect x="97" y="126" width="1" height="1" fill="#CEAB6A" />
<rect x="6" y="127" width="1" height="1" fill="#CEAB6A" />
<rect x="96" y="127" width="1" height="1" fill="#CEAB6A" />
</svg>