<?xml version="1.0" encoding="UTF-8" ?>
<svg version="1.1" width="103" height="137" xmlns="http://www.w3.org/2000/svg" shape-rendering="crispEdges">
<rect x="6" y="7" width="1" height="1" fill="#CEAB6A" />
<rect x="96" y="7" width="1" height="1" fill="#CEAB6A" />
<rect x="5" y="8" width="1" height="1" fill="#CEAB6A" />
<rect x="6" y="8" width="1" height="1" fill="#CEAB6A" />
<rect x="7" y="8" width="1" height="1" fill="#CEAB6A" />
<rect x="95" y="8" width="1" height="1" fill="#CEAB6A" />
<rect x="96" y="8" width="1" height="1" fill="#CEAB6A" />
<rect x="97" y="8" width="1" height="1" fill="#CEAB6A" />
<rect x="4" y="9" width="1" height="1" fill="#CEAB6A" />
<rect x="5" y="9" width="1" height="1" fill="#CEAB6A" />
<rect x="7" y="9" width="1" height="1" fill="#CEAB6A" />
<rect x="8" y="9" width="1" height="1" fill="#CEAB6A" />
<rect x="94" y="9" width="1" height="1" fill="#CEAB6A" />
<rect x="95" y="9" width="1" height="1" fill="#CEAB6A" />
<rect x="97" y="9" width="1" height="1" fill="#CEAB6A" />
<rect x="98" y="9" width="1" height="1" fill="#CEAB6A" />
<rect x="5" y="10" width="1" height="1" fill="#CEAB6A" />
<rect x="6" y="10" width="1" height="1" fill="#CEAB6A" />
<rect x="7" y="10" width="1" height="1" fill="#CEAB6A" />
<rect x="95" y="10" width="1" height="1" fill="#CEAB6A" />
<rect x="96" y="10" width="1" height="1" fill="#CEAB6A" />
<rect x="97" y="10" width="1" height="1" fill="#CEAB6A" />
<rect x="6" y="11" width="1" height="1" fill="#CEAB6A" />
<rect x="96" y="11" width="1" height="1" fill="#CEAB6A" />
<rect x="15" y="13" width="1" height="1" fill="#CEAB6A" />
<rect x="86" y="13" width="1" height="1" fill="#CEAB6A" />
<rect x="13" y="14" width="1" height="1" fill="#CEAB6A" />
<rect x="15" y="14" width="1" height="1" fill="#CEAB6A" />
<rect x="17" y="14" width="1" height="1" fill="#CEAB6A" />
<rect x="84" y="14" width="1" height="1" fill="#CEAB6A" />
<rect x="86" y="14" width="1" height="1" fill="#CEAB6A" />
<rect x="88" y="14" width="1" height="1" fill="#CEAB6A" />
<rect x="14" y="15" width="1" height="1" fill="#CEAB6A" />
<rect x="15" y="15" width="1" height="1" fill="#CEAB6A" />
<rect x="16" y="15" width="1" height="1" fill="#CEAB6A" />
<rect x="85" y="15" width="1" height="1" fill="#CEAB6A" />
<rect x="86" y="15" width="1" height="1" fill="#CEAB6A" />
<rect x="87" y="15" width="1" height="1" fill="#CEAB6A" />
<rect x="12" y="16" width="1" height="1" fill="#CEAB6A" />
<rect x="13" y="16" width="1" height="1" fill="#CEAB6A" />
<rect x="14" y="16" width="1" height="1" fill="#CEAB6A" />
<rect x="16" y="16" width="1" height="1" fill="#CEAB6A" />
<rect x="17" y="16" width="1" height="1" fill="#CEAB6A" />
<rect x="18" y="16" width="1" height="1" fill="#CEAB6A" />
<rect x="83" y="16" width="1" height="1" fill="#CEAB6A" />
<rect x="84" y="16" width="1" height="1" fill="#CEAB6A" />
<rect x="85" y="16" width="1" height="1" fill="#CEAB6A" />
<rect x="87" y="16" width="1" height="1" fill="#CEAB6A" />
<rect x="88" y="16" width="1" height="1" fill="#CEAB6A" />
<rect x="89" y="16" width="1" height="1" fill="#CEAB6A" />
<rect x="14" y="17" width="1" height="1" fill="#CEAB6A" />
<rect x="15" y="17" width="1" height="1" fill="#CEAB6A" />
<rect x="16" y="17" width="1" height="1" fill="#CEAB6A" />
<rect x="85" y="17" width="1" height="1" fill="#CEAB6A" />
<rect x="86" y="17" width="1" height="1" fill="#CEAB6A" />
<rect x="87" y="17" width="1" height="1" fill="#CEAB6A" />
<rect x="13" y="18" width="1" height="1" fill="#CEAB6A" />
<rect x="15" y="18" width="1" height="1" fill="#CEAB6A" />
<rect x="17" y="18" width="1" height="1" fill="#CEAB6A" />
<rect x="84" y="18" width="1" height="1" fill="#CEAB6A" />
<rect x="86" y="18" width="1" height="1" fill="#CEAB6A" />
<rect x="88" y="18" width="1" height="1" fill="#CEAB6A" />
<rect x="15" y="19" width="1" height="1" fill="#CEAB6A" />
<rect x="86" y="19" width="1" height="1" fill="#CEAB6A" />
<rect x="6" y="22" width="1" height="1" fill="#CEAB6A" />
<rect x="96" y="22" width="1" height="1" fill="#CEAB6A" />
<rect x="5" y="23" width="1" height="1" fill="#CEAB6A" />
<rect x="6" y="23" width="1" height="1" fill="#CEAB6A" />
<rect x="7" y="23" width="1" height="1" fill="#CEAB6A" />
<rect x="95" y="23" width="1" height="1" fill="#CEAB6A" />
<rect x="96" y="23" width="1" height="1" fill="#CEAB6A" />
<rect x="97" y="23" width="1" height="1" fill="#CEAB6A" />
<rect x="4" y="24" width="1" height="1" fill="#CEAB6A" />
<rect x="5" y="24" width="1" height="1" fill="#CEAB6A" />
<rect x="7" y="24" width="1" height="1" fill="#CEAB6A" />
<rect x="8" y="24" width="1" height="1" fill="#CEAB6A" />
<rect x="94" y="24" width="1" height="1" fill="#CEAB6A" />
<rect x="95" y="24" width="1" height="1" fill="#CEAB6A" />
<rect x="97" y="24" width="1" height="1" fill="#CEAB6A" />
<rect x="98" y="24" width="1" height="1" fill="#CEAB6A" />
<rect x="5" y="25" width="1" height="1" fill="#CEAB6A" />
<rect x="6" y="25" width="1" height="1" fill="#CEAB6A" />
<rect x="7" y="25" width="1" height="1" fill="#CEAB6A" />
<rect x="95" y="25" width="1" height="1" fill="#CEAB6A" />
<rect x="96" y="25" width="1" height="1" fill="#CEAB6A" />
<rect x="97" y="25" width="1" height="1" fill="#CEAB6A" />
<rect x="6" y="26" width="1" height="1" fill="#CEAB6A" />
<rect x="96" y="26" width="1" height="1" fill="#CEAB6A" />
<rect x="6" y="109" width="1" height="1" fill="#CEAB6A" />
<rect x="96" y="109" width="1" height="1" fill="#CEAB6A" />
<rect x="5" y="110" width="1" height="1" fill="#CEAB6A" />
<rect x="6" y="110" width="1" height="1" fill="#CEAB6A" />
<rect x="7" y="110" width="1" height="1" fill="#CEAB6A" />
<rect x="95" y="110" width="1" height="1" fill="#CEAB6A" />
<rect x="96" y="110" width="1" height="1" fill="#CEAB6A" />
<rect x="97" y="110" width="1" height="1" fill="#CEAB6A" />
<rect x="4" y="111" width="1" height="1" fill="#CEAB6A" />
<rect x="5" y="111" width="1" height="1" fill="#CEAB6A" />
<rect x="7" y="111" width="1" height="1" fill="#CEAB6A" />
<rect x="8" y="111" width="1" height="1" fill="#CEAB6A" />
<rect x="94" y="111" width="1" height="1" fill="#CEAB6A" />
<rect x="95" y="111" width="1" height="1" fill="#CEAB6A" />
<rect x="97" y="111" width="1" height="1" fill="#CEAB6A" />
<rect x="98" y="111" width="1" height="1" fill="#CEAB6A" />
<rect x="5" y="112" width="1" height="1" fill="#CEAB6A" />
<rect x="6" y="112" width="1" height="1" fill="#CEAB6A" />
<rect x="7" y="112" width="1" height="1" fill="#CEAB6A" />
<rect x="95" y="112" width="1" height="1" fill="#CEAB6A" />
<rect x="96" y="112" width="1" height="1" fill="#CEAB6A" />
<rect x="97" y="112" width="1" height="1" fill="#CEAB6A" />
<rect x="6" y="113" width="1" height="1" fill="#CEAB6A" />
<rect x="96" y="113" width="1" height="1" fill="#CEAB6A" />
<rect x="15" y="115" width="1" height="1" fill="#CEAB6A" />
<rect x="86" y="115" width="1" height="1" fill="#CEAB6A" />
<rect x="13" y="116" width="1" height="1" fill="#CEAB6A" />
<rect x="15" y="116" width="1" height="1" fill="#CEAB6A" />
<rect x="17" y="116" width="1" height="1" fill="#CEAB6A" />
<rect x="84" y="116" width="1" height="1" fill="#CEAB6A" />
<rect x="86" y="116" width="1" height="1" fill="#CEAB6A" />
<rect x="88" y="116" width="1" height="1" fill="#CEAB6A" />
<rect x="14" y="117" width="1" height="1" fill="#CEAB6A" />
<rect x="15" y="117" width="1" height="1" fill="#CEAB6A" />
<rect x="16" y="117" width="1" height="1" fill="#CEAB6A" />
<rect x="85" y="117" width="1" height="1" fill="#CEAB6A" />
<rect x="86" y="117" width="1" height="1" fill="#CEAB6A" />
<rect x="87" y="117" width="1" height="1" fill="#CEAB6A" />
<rect x="12" y="118" width="1" height="1" fill="#CEAB6A" />
<rect x="13" y="118" width="1" height="1" fill="#CEAB6A" />
<rect x="14" y="118" width="1" height="1" fill="#CEAB6A" />
<rect x="16" y="118" width="1" height="1" fill="#CEAB6A" />
<rect x="17" y="118" width="1" height="1" fill="#CEAB6A" />
<rect x="18" y="118" width="1" height="1" fill="#CEAB6A" />
<rect x="83" y="118" width="1" height="1" fill="#CEAB6A" />
<rect x="84" y="118" width="1" height="1" fill="#CEAB6A" />
<rect x="85" y="118" width="1" height="1" fill="#CEAB6A" />
<rect x="87" y="118" width="1" height="1" fill="#CEAB6A" />
<rect x="88" y="118" width="1" height="1" fill="#CEAB6A" />
<rect x="89" y="118" width="1" height="1" fill="#CEAB6A" />
<rect x="14" y="119" width="1" height="1" fill="#CEAB6A" />
<rect x="15" y="119" width="1" height="1" fill="#CEAB6A" />
<rect x="16" y="119" width="1" height="1" fill="#CEAB6A" />
<rect x="85" y="119" width="1" height="1" fill="#CEAB6A" />
<rect x="86" y="119" width="1" height="1" fill="#CEAB6A" />
<rect x="87" y="119" width="1" height="1" fill="#CEAB6A" />
<rect x="13" y="120" width="1" height="1" fill="#CEAB6A" />
<rect x="15" y="120" width="1" height="1" fill="#CEAB6A" />
<rect x="17" y="120" width="1" height="1" fill="#CEAB6A" />
<rect x="84" y="120" width="1" height="1" fill="#CEAB6A" />
<rect x="86" y="120" width="1" height="1" fill="#CEAB6A" />
<rect x="88" y="120" width="1" height="1" fill="#CEAB6A" />
<rect x="15" y="121" width="1" height="1" fill="#CEAB6A" />
<rect x="86" y="121" width="1" height="1" fill="#CEAB6A" />
<rect x="6" y="124" width="1" height="1" fill="#CEAB6A" />
<rect x="96" y="124" width="1" height="1" fill="#CEAB6A" />
<rect x="5" y="125" width="1" height="1" fill="#CEAB6A" />
<rect x="6" y="125" width="1" height="1" fill="#CEAB6A" />
<rect x="7" y="125" width="1" height="1" fill="#CEAB6A" />
<rect x="95" y="125" width="1" height="1" fill="#CEAB6A" />
<rect x="96" y="125" width="1" height="1" fill="#CEAB6A" />
<rect x="97" y="125" width="1" height="1" fill="#CEAB6A" />
<rect x="4" y="126" width="1" height="1" fill="#CEAB6A" />
<rect x="5" y="126" width="1" height="1" fill="#CEAB6A" />
<rect x="7" y="126" width="1" height="1" fill="#CEAB6A" />
<rect x="8" y="126" width="1" height="1" fill="#CEAB6A" />
<rect x="94" y="126" width="1" height="1" fill="#CEAB6A" />
<rect x="95" y="126" width="1" height="1" fill="#CEAB6A" />
<rect x="97" y="126" width="1" height="1" fill="#CEAB6A" />
<rect x="98" y="126" width="1" height="1" fill="#CEAB6A" />
<rect x="5" y="127" width="1" height="1" fill="#CEAB6A" />
<rect x="6" y="127" width="1" height="1" fill="#CEAB6A" />
<rect x="7" y="127" width="1" height="1" fill="#CEAB6A" />
<rect x="95" y="127" width="1" height="1" fill="#CEAB6A" />
<rect x="96" y="127" width="1" height="1" fill="#CEAB6A" />
<rect x="97" y="127" width="1" height="1" fill="#CEAB6A" />
<rect x="6" y="128" width="1" height="1" fill="#CEAB6A" />
<rect x="96" y="128" width="1" height="1" fill="#CEAB6A" />
</svg>